<svg xmlns="http://www.w3.org/2000/svg" viewBox="0 0 217.1 35.63">
  <path d="M26.17,23.91c.3,3.9-1.4,11.3-12.5,11.7a34.24,34.24,0,0,1-13.6-2.5v-9.5h1.2c.3,1.2,2.6,9.9,10.7,10.3,4.7.2,8.3-1.8,8.4-5.7.1-4.6-4.9-6.1-9.5-7.9-5.1-2-10.1-4-10.8-9.6-.8-6.5,5.2-10.9,12.1-10.6a33.22,33.22,0,0,1,10.5,2.3v8h-1.2c-.7-4.3-3.3-8.4-9.2-8.8-3.5-.3-6.6,1-6.6,4.8s6.3,5.3,10.8,7.1S25.58,17.81,26.17,23.91Z"/>
  <path d="M186.27,23.91c.3,3.9-1.4,11.3-12.5,11.7a35,35,0,0,1-13.6-2.5v-9.5h1.2c.3,1.2,2.6,9.9,10.7,10.3,4.7.2,8.3-1.8,8.4-5.7.1-4.6-4.9-6.1-9.5-7.9-5.1-2.1-10.1-4.1-10.8-9.7-.8-6.5,5.2-10.9,12.1-10.6a33.22,33.22,0,0,1,10.5,2.3v8h-1.19c-.7-4.3-3.3-8.4-9.2-8.8-3.5-.2-6.6,1.1-6.6,4.8s6.3,5.3,10.8,7.1C181.27,15.31,185.77,17.81,186.27,23.91Z"/>
  <path d="M217.07,23.91c.3,3.9-1.4,11.3-12.5,11.7a35,35,0,0,1-13.6-2.5v-9.5h1.2c.3,1.2,2.6,9.9,10.7,10.3,4.7.2,8.3-1.8,8.4-5.7.1-4.6-4.9-6.1-9.5-7.9-5.1-2.1-10.1-4.1-10.8-9.7-.8-6.5,5.2-10.9,12.1-10.6a33.22,33.22,0,0,1,10.5,2.3v8h-1.2c-.7-4.3-3.3-8.4-9.2-8.8-3.5-.2-6.6,1.1-6.6,4.8s6.3,5.3,10.8,7.1S216.47,17.81,217.07,23.91Z"/>
  <path d="M39.58,16h17.1V5.91a2.79,2.79,0,0,0-.3-1.3,2,2,0,0,0-1.1-.9,8.49,8.49,0,0,0-1.7-.5l-1.7-.3h-.2V.71h16v2.2h-.2a10.9,10.9,0,0,0-1.8.2,9.85,9.85,0,0,0-1.6.4,1.79,1.79,0,0,0-1.1.8,3.24,3.24,0,0,0-.3,1.4v24.5a3.09,3.09,0,0,0,.3,1.3,2.42,2.42,0,0,0,1.1.9,7.35,7.35,0,0,0,1.6.4,10.9,10.9,0,0,0,1.8.2h.2v2.2h-16v-2.1h.2c.6,0,1.2-.1,1.8-.1a4.37,4.37,0,0,0,1.6-.3,2,2,0,0,0,1-.8,2.26,2.26,0,0,0,.3-1.39v-12h-17v11.6a3.09,3.09,0,0,0,.3,1.3,2.42,2.42,0,0,0,1.1.9,7.35,7.35,0,0,0,1.6.4,10.9,10.9,0,0,0,1.8.2h.2v2.2h-16V33h.2c.6,0,1.2-.1,1.8-.1a4.37,4.37,0,0,0,1.6-.3,2,2,0,0,0,1-.8,2.21,2.21,0,0,0,.3-1.4V5.91a2.79,2.79,0,0,0-.3-1.3,2,2,0,0,0-1.1-.9,8.49,8.49,0,0,0-1.7-.5l-1.7-.3h-.2V.71h16v2.2h-.2a10.9,10.9,0,0,0-1.8.2,9.85,9.85,0,0,0-1.6.4,1.54,1.54,0,0,0-1.1.8,3.24,3.24,0,0,0-.3,1.4ZM85,3v13.1h4a9.45,9.45,0,0,0,2.9-.3,3.24,3.24,0,0,0,1.5-1.1,6.08,6.08,0,0,0,.9-1.8,16.87,16.87,0,0,0,.5-2.1v-.2h2.4v13.7h-2.4v-.2a11,11,0,0,0-.6-2.4,6.08,6.08,0,0,0-.9-1.8,4.1,4.1,0,0,0-1.7-1.2,12.28,12.28,0,0,0-2.7-.3h-4v10a9.66,9.66,0,0,0,.2,2.4,2,2,0,0,0,.8,1.2,5.46,5.46,0,0,0,1.8.6c1.1.1,2.3.1,3.3.1h2.3a19.27,19.27,0,0,0,2.4-.1l2-.3a3,3,0,0,0,1.4-.6,16.38,16.38,0,0,0,2.5-3.4,21.58,21.58,0,0,0,1.7-3.4l.1-.2h2.3l-.7,10.5H73.58v-2.1h.2a14.78,14.78,0,0,0,2.1-.2,9.93,9.93,0,0,0,1.7-.3,2.31,2.31,0,0,0,1.1-.9,3.09,3.09,0,0,0,.3-1.3V5.91a2.79,2.79,0,0,0-.3-1.3,2.42,2.42,0,0,0-1.1-.9,10.43,10.43,0,0,0-1.9-.5l-1.9-.3h-.2V.71h29.3v8.6h-2.4v-.2a11.06,11.06,0,0,0-2.2-3.8,6,6,0,0,0-3.2-2.2,12,12,0,0,0-1.9-.1Zm59.8,2.6h0l-12.7,29h-1.6l-12.1-29.5v20a15.87,15.87,0,0,0,.4,4.4,3.43,3.43,0,0,0,1.2,2.1,6.54,6.54,0,0,0,2.3.9,20,20,0,0,0,2.3.5h.2v2.2h-15.5v-2.1h.2c.8-.1,1.6-.2,2.5-.4a4,4,0,0,0,1.9-.8,3.83,3.83,0,0,0,1.2-1.9,23.62,23.62,0,0,0,.3-4.6V8a6.34,6.34,0,0,0-.4-2.4,3.24,3.24,0,0,0-1.1-1.5,4.7,4.7,0,0,0-1.9-.9,18.14,18.14,0,0,0-2.3-.4h-.2V.71h13.1l10.5,25.2L142,5l.9-2.4a8.24,8.24,0,0,0,.4-1.7V.71H156v2.2h-.2a13.45,13.45,0,0,0-1.9.2,9.85,9.85,0,0,0-1.6.4,1.54,1.54,0,0,0-1.1.8,3.24,3.24,0,0,0-.3,1.4v24.5a2.79,2.79,0,0,0,.3,1.3,2.42,2.42,0,0,0,1.1.9,9.85,9.85,0,0,0,1.6.4,12.13,12.13,0,0,0,1.9.2h.2v2.2H139V33h.2a17.7,17.7,0,0,0,2.3-.2,13.65,13.65,0,0,0,1.9-.4,3.51,3.51,0,0,0,1.1-1,2.32,2.32,0,0,0,.4-1.4l-.1-24.4Z"/>
</svg>
