<svg viewBox="0 0 448 448" xmlns="http://www.w3.org/2000/svg">
  <style>@media (prefers-color-scheme: dark) { path { fill: #fff; } }</style>
  <path d="M253.311,194.21c2,-8.72 8.07,-15.25 7.48,-21c-0.393,-2.487 -1.855,-4.682 -4,-6c-1.91,-1.26 -5,-2.67 -6.7,-2.8c-2,-0.15 -3.8,-0.12 -5.56,-1.13c-1.83,-1.07 -3.61,-3.28 -5.43,-8c-0.944,-2.835 -0.983,-5.894 -0.11,-8.75c1.34,-5.34 4.58,-10.93 6.91,-15.47c2.22,-4.27 3.61,-7.61 1.85,-8.91c-3.19,-2.48 -3.79,4.23 -12.78,2.66c-3.057,-0.619 -6.01,-1.669 -8.77,-3.12c-1.39,-0.62 -2.58,-1.07 -3.6,-1.47c-2.43,-0.94 -3.91,-1.62 -5,-3.73c-0.61,-1.4 -1.037,-2.872 -1.27,-4.38c-0.09,-0.542 -0.291,-1.06 -0.59,-1.52c-0.756,-0.942 -1.603,-1.807 -2.53,-2.58c-0.931,-0.996 -1.48,-2.289 -1.55,-3.65l0,-0.67c-0.06,-1.5 0.43,-1.94 1.06,-2.31c0.596,-0.341 1.128,-0.785 1.57,-1.31c0.141,-0.163 0.268,-0.337 0.38,-0.52c0.658,-1.321 1.2,-2.696 1.62,-4.11c1.254,-3.938 1.613,-8.107 1.05,-12.2c-0.336,-2.307 -1.01,-4.551 -2,-6.66c-0.201,0.118 -0.346,0.313 -0.4,0.54c-0.055,0.226 0,0 0,0c-0.267,1.825 -0.661,3.629 -1.18,5.4l0,0.08c-0.708,1.882 -1.692,3.648 -2.92,5.24c-0.677,0.869 -1.408,1.694 -2.19,2.47l-0.36,0.35c-2.43,2.35 -5.16,4.26 -6.66,5.86c-0.372,0.383 -0.689,0.818 -0.94,1.29c-0.005,0.019 -0.005,0.04 0,0.06c-0.65,1.44 0.2,2.19 1.16,3c0.96,0.81 2.1,1.75 1.84,3.57c-0.08,0.468 -0.184,0.932 -0.31,1.39c-0.49,1.8 -1.38,3.92 -2,5.9l0,0.08c-0.59,1.84 -1,3.55 -2,4.77l0,0.05c-0.498,0.593 -1.138,1.051 -1.86,1.33c-0.197,0.082 -0.407,0.126 -0.62,0.13c-2.55,0.15 -5,-4.66 -8.11,-4.83c-1.873,-0.068 -3.747,0.117 -5.57,0.55c-4,0.87 -9.64,2.68 -19.59,5.42c-1.237,0.319 -2.513,0.46 -3.79,0.42c-2.93,-0.06 -5.94,-0.66 -8.87,-0.11c-0.74,0.153 -1.46,0.283 -2.16,0.39c-4.174,0.824 -8.429,1.16 -12.68,1c-2.17,-0.13 -10.14,-1.45 -14.64,-3.51c-3.071,-1.412 -5.954,-3.203 -8.58,-5.33c-2.627,-2.128 -2.2,-1.75 -2.25,-1.8c-3,-2.37 -5.45,-3.78 -8.94,-2.07c-1.3,0.64 -3.07,3.89 -2.57,7.2c0.56,3.81 3.66,5.11 3.51,9.73c-0.12,3.63 -8.4,10.36 -11.3,13.86c-2.77,3.317 -4.245,7.529 -4.15,11.85c1.76,31.18 52.81,51.69 64.2,37.27c6.13,-7.76 -0.69,-26.06 -20.66,-33c-7.18,-2.49 -11.47,-8.38 -11.4,-15c0.155,-4.49 1.999,-8.759 5.16,-11.95c0.842,-0.835 1.807,-1.536 2.86,-2.08c3.54,-1.8 7.72,-1.48 12.38,-0.35c2.81,0.68 5.29,3 8.68,3.4c6.22,0.54 6.91,-0.51 8.8,-0.15c0.777,0.159 1.48,0.57 2,1.17c6.47,6.47 9.39,9 15.33,11.82c6.88,3.28 16.66,2.35 18,2.66l0.42,0.11c0.728,0.228 1.427,0.544 2.08,0.94c0.82,0.49 2,1.48 2.42,1.74c0.856,0.611 1.771,1.137 2.73,1.57c2.076,0.764 3.941,2.012 5.44,3.64c3.21,3.62 6.22,9.41 8.09,11.84c1.261,1.956 2.863,3.67 4.73,5.06c2.899,1.868 5.973,3.449 9.18,4.72c1.84,0.3 0.64,-1.54 -0.95,-2.88c-10.58,-8.9 -19.71,-36.34 -22,-46.7c-0.29,-1.28 0.29,-3.47 1.23,-4.12c0.94,-0.65 2.92,0.2 4.09,0.8c2.049,1.161 4.017,2.46 5.89,3.89c4.78,3.45 10.28,7.58 11.66,9.91c1.18,2 4.08,4.55 6.21,15.21c0.41,2.08 0.89,4.49 1.57,7.55c0.36,1.61 3.06,11.32 2,16.92c-0.55,3.612 -3.167,6.585 -6.68,7.59c-2.56,0.42 -5.66,0.11 -8.73,0.16l-0.08,0c-3,0 -6,0.43 -8.46,2.13l-0.11,0.09c-4.9,3.53 -5.86,10.2 -7.22,16.55c-0.74,3.41 -2.18,6.43 -3.21,9.41c-6.21,18 -20.71,6 -33.53,6c-11.21,0 -38.56,32.15 -40.07,58.26c-1,17.87 32.07,21.3 27.57,49.94c-1.8,11.54 -14.7,35.91 -9.62,51.63c5.16,16.09 23.55,24.92 25.92,26.46c24.77,16.1 12.19,28.91 20.83,39.89c6.09,7.73 13.21,3.53 19.66,-5.34c5.89,-8.1 17.21,-35.63 6.19,-39c-5.18,-2 -9,4.59 -21,1.52c-8.36,-2.14 -12.74,-12.26 -12.23,-18.37c0.6,-7.17 3.13,-18.84 13.59,-31.16c6.37,-7.5 8.07,-4.51 12.63,-10.17c3.51,-4.36 5.45,-12 7.19,-15.27c2.15,-3.845 4.686,-7.46 7.57,-10.79c-2.584,0.114 -5.174,-0.027 -7.73,-0.42c-2.124,-0.222 -4.148,-1.021 -5.85,-2.31c-1.484,-1.256 -1.865,-3.412 -0.9,-5.1c1.61,-3.58 7,-7.67 14.78,-10.73c0.84,-0.33 1.71,-0.64 2.6,-0.95c-7.24,-1.53 -12.12,-3.51 -14.94,-5.61c-7.39,-5.44 -0.62,-11.59 15.11,-12.15l2.35,0c-6.558,-4.134 -12.042,-9.766 -16,-16.43c-2.885,-4.929 -4.548,-10.478 -4.85,-16.18c-0.51,-11 4.84,-20.52 14,-23.79c7.72,-2.75 18.14,-1.1 30.08,7.79l0.64,0.48c-4.2,-12.66 -6.51,-21.72 -3.54,-34.77Zm-73.34,-55.76c-4.88,0.49 -10.49,-3.67 -11,-7.86c-0.27,-2.24 1,-2.68 1.31,-2.63c2,0.27 7.63,1.41 18.32,2.37c-0.97,4.52 -4.27,7.68 -8.63,8.12Z"/>
  <path d="M342.971,122.01c1.756,0.28 3.556,0.097 5.22,-0.53c0,4.47 -2.78,7.74 -4.69,9.43c-0.442,0.464 -1.155,0.556 -1.7,0.22c-2.35,-1 -4.8,-1.51 -7.24,-0.29c-0.683,0.326 -1.233,0.877 -1.56,1.56c-2,5.54 -6.09,9.19 -11,12.07c-1.64,0.95 -3.25,2 -4.9,2.88c-0.583,0.271 -0.91,0.908 -0.79,1.54c0.55,10.67 7,23.81 6.83,28.16c-10.57,-13.22 -16.86,-28.63 -14.8,-43.53c0.301,-2.467 1.347,-4.784 3,-6.64c2.88,-3.17 6.54,-2.63 8.84,-3.45c1.94,-0.7 8.88,-6.58 17,-6.2c2.17,0.1 3.09,1.75 4,3.51c0.391,0.655 1.042,1.116 1.79,1.27Zm-17.09,9.73c-4.64,0 -9.28,0.22 -13.91,0.26c-0.04,-0.004 -0.08,-0.006 -0.12,-0.006c-0.763,0 -1.39,0.628 -1.39,1.39c0,0.056 0.003,0.111 0.01,0.166c0.059,1.442 0.24,2.877 0.54,4.29c0.73,3.17 2.75,5.57 7,4.89c5.12,-0.917 8.634,-5.805 7.87,-10.95l0,-0.04Z"/>
  <path d="M273.011,122.35c-1.018,-2.774 -2.742,-5.236 -5,-7.14c-0.88,-0.78 -1.365,-1.916 -1.32,-3.09c-0.21,-4.16 -0.6,-8.87 -4,-11.36c-3.4,-2.49 -3.68,-4.58 -3.21,-8.11c0.256,-2.132 -0.164,-4.29 -1.2,-6.17c-1.45,-2.87 -1.56,-6.05 -1.51,-9.23c0.132,-3.061 0.078,-6.126 -0.16,-9.18c-0.35,-3.28 -3.53,-7.06 -7.64,-7.17c-4.86,-0.12 -7.89,-3.53 -8.13,-8.36c-0.24,-4.83 -5.43,-5.56 -6.74,-6.18c-2.42,-1.15 -3.57,-4.42 -1.63,-7.66c2.25,-4 1.72,-8 -0.87,-11.5c-4.342,-6.076 -9.306,-11.683 -14.81,-16.73c-2.44,-2.174 -4.847,-4.38 -7.22,-6.62c-0.69,-0.64 -1.91,-2 -1.67,-2.62c0.18,-0.47 1,-0.09 1.49,0c2.67,0.59 4.78,2.21 7,3.73c1.318,0.925 2.702,1.754 4.14,2.48c3.873,1.813 7.51,4.094 10.83,6.79c3,2.58 6.16,5.07 9.18,7.68c1.081,1.02 2.083,2.119 3,3.29c3.332,4.121 7.012,7.948 11,11.44c3.22,2.69 6.18,5.69 9.23,8.58c1.62,1.53 1.48,3.32 0.73,5.24c-1.38,3.506 -2.714,7.036 -4,10.59c-0.345,0.898 -0.541,1.848 -0.58,2.81c0.066,0.695 0.322,1.359 0.74,1.92c0.918,1.138 1.738,2.352 2.45,3.63c1.81,4.42 4.54,8.26 7.31,12.08c0.31,0.41 2.67,1.81 2.49,-0.94c-0.2,-3.24 0.401,-6.479 1.75,-9.43c0.65,-1.48 2.4,-2 3,-0.05c1.13,3.37 4.08,5.43 6,8.23c0.87,1.26 0.92,2 -0.23,3.06c-0.878,0.769 -1.8,1.486 -2.76,2.15c-1.388,1.062 -2.024,2.849 -1.62,4.55c0.127,1.254 1.196,2.22 2.457,2.22c0.183,0 0.365,-0.02 0.543,-0.06c0.93,-0.08 1.86,-0.11 2.78,-0.18c0.92,-0.07 1.29,0.37 1.13,1.15c-0.53,2.52 -1,5.07 -1.76,7.52c-0.862,2.486 -2.223,4.769 -4,6.71c-1.83,2.15 -1.9,4.85 -2.14,7.44c-0.33,3.42 -0.45,6.86 -0.72,10.28c-0.13,0.949 -0.313,1.891 -0.55,2.82c-1.98,-0.16 -3.14,-2.85 -3.78,-4.61Z"/>
  <path d="M352.211,237.95c8.53,9.16 10.41,19.85 6.93,24.08c-2.238,2.73 -5.332,4.63 -8.78,5.39c-0.887,0.069 -1.761,0.254 -2.6,0.55c-2.29,0.89 -3.91,2.72 -5.39,4.83c-1.85,2.64 -3.32,5.65 -5.72,7.79c-4.235,3.819 -8.068,8.061 -11.44,12.66c-1.05,1.56 -1.45,3.58 -2.1,5.4c-2.76,7.73 -4.79,13 -4.1,19.38c0.384,3.023 1.98,5.764 4.42,7.59c6.945,5.282 11.539,13.092 12.78,21.73c0.66,4.67 -1.85,6.75 -5.92,7c-1.37,0.07 -2,-0.76 -1.7,-2.11c0.43,-1.72 1,-3.4 1.5,-5.1c1,-2.84 -0.68,-4.13 -3.16,-5.77c-1.79,-1.18 -3.79,-2.74 -6.39,-4.28c-1.65,-1 -2.62,-1.81 -4.76,-1.23c-2.527,0.687 -4.961,1.678 -7.25,2.95c-3.3,1.82 -8.41,5.27 -14.24,6.75c-1.58,0.41 -16.59,2.69 -21.31,2.69c-7.905,0.42 -15.781,1.281 -23.59,2.58c-2.28,0.52 -4.58,1 -6.79,1.72c-6.82,2.17 -17,8.46 -19.84,16.36c-1.15,3.5 -4.39,4.48 -7.49,-0.33c-0.194,-0.288 -0.362,-0.593 -0.5,-0.91c-1.079,-2.218 -1.031,-4.824 0.13,-7c2.081,-4.169 5.125,-7.782 8.88,-10.54c2.09,-1.52 9,-4.94 18.24,-5.31c5.76,-0.24 8.62,-1.06 14.29,-1.63c16,-1.62 24,-2.43 28,-4.31c5.17,-2.4 15.52,-8.6 19.85,-10.65c1,-0.49 6.28,-2.24 9.11,-6.46c3.18,-4.76 3.92,-12.13 4.47,-14.26c0.44,-1.7 1.21,-3.31 1.73,-5c0.87,-2.834 0.828,-5.872 -0.12,-8.68c-1.37,-4.29 -4.29,-7.5 -7.1,-10.84c-2.66,-3.16 -6.06,-4.52 -10,-5.36c-6.13,-1.31 -7.58,-3.14 -10.29,-5.56c-2.91,-2.6 -4.55,-5.88 -6.18,-9.26c-1.269,-1.948 -2.983,-3.566 -5,-4.72c-1.53,-0.57 -3.48,-0.62 -4.43,0.67c-2.75,3.77 -5.58,2 -6.77,0c-0.385,-0.842 -0.55,-1.768 -0.48,-2.69c-0,-3.49 -1.52,-4.34 -3.81,-6.63c-2.52,-2.52 -1.7,-6.08 1.75,-7.15c1.081,-0.344 2.222,-0.46 3.35,-0.34c2.569,0.149 5.105,0.646 7.54,1.48c6.3,2.51 9.8,9.59 15.71,12.52c10.69,5.3 20.82,-5 35.53,-3.68c3.939,0.364 7.815,1.238 11.53,2.6c2.14,0.946 4.46,1.42 6.8,1.39c1.132,-0.054 2.254,-0.245 3.34,-0.57c1.735,-0.508 3.065,-1.918 3.47,-3.68c0.302,-2.257 0.261,-4.546 -0.12,-6.79c-0.289,-2.51 -0.957,-4.961 -1.98,-7.27Z"/>
</svg>
