<?xml version="1.0" standalone="no"?>
<!DOCTYPE svg PUBLIC "-//W3C//DTD SVG 20010904//EN"
 "http://www.w3.org/TR/2001/REC-SVG-20010904/DTD/svg10.dtd">
<svg version="1.0" xmlns="http://www.w3.org/2000/svg"
 width="700.000000pt" height="700.000000pt" viewBox="0 0 700.000000 700.000000"
 preserveAspectRatio="xMidYMid meet">
<metadata>
Created by potrace 1.14, written by Peter Selinger 2001-2017
</metadata>
<g transform="translate(0.000000,700.000000) scale(0.100000,-0.100000)"
fill="#000000" stroke="none">
<path d="M3250 6974 c0 -5 54 -61 121 -124 107 -102 211 -218 256 -286 28 -44
32 -88 12 -146 -33 -96 -26 -121 47 -153 56 -25 71 -43 80 -101 11 -68 59
-114 119 -114 36 0 82 -29 105 -65 15 -24 19 -55 22 -165 3 -106 8 -142 22
-170 13 -23 19 -55 18 -95 0 -68 8 -89 49 -126 37 -34 57 -83 65 -155 4 -45
11 -63 35 -88 17 -17 44 -59 61 -93 26 -53 52 -82 64 -70 2 2 6 34 9 73 16
202 12 187 69 279 31 51 69 171 61 193 -3 8 -17 12 -37 9 -79 -10 -94 51 -28
112 22 20 40 43 40 51 0 8 -23 42 -50 75 -28 33 -53 68 -56 77 -16 53 -64 -26
-69 -115 -1 -26 -5 -51 -8 -54 -18 -17 -68 44 -135 167 -16 30 -38 69 -48 86
l-18 32 42 113 c23 63 42 124 42 136 0 14 -32 50 -97 110 -53 48 -126 120
-162 158 -166 176 -299 291 -388 335 -27 13 -79 43 -117 67 -66 43 -126 65
-126 47z"/>
<path d="M3351 5756 c-23 -93 -45 -123 -169 -239 -29 -26 -52 -52 -52 -58 0
-5 11 -21 25 -35 32 -31 31 -55 -1 -151 -31 -92 -63 -129 -97 -111 -12 6 -28
18 -36 25 -56 56 -95 55 -330 -12 -139 -40 -167 -45 -256 -44 -55 0 -111 -3
-125 -7 -14 -4 -70 -8 -125 -9 -78 -2 -119 2 -185 19 -103 27 -131 41 -238
118 -130 94 -196 88 -208 -18 -6 -43 -2 -58 21 -99 30 -54 34 -89 15 -125 -7
-13 -51 -64 -98 -113 -103 -109 -126 -156 -125 -253 1 -265 295 -549 663 -640
75 -18 196 -18 253 2 114 39 147 161 81 300 -13 28 -33 62 -45 75 -11 13 -24
29 -27 35 -4 6 -33 31 -65 57 -54 44 -86 61 -196 109 -145 62 -203 199 -140
332 46 98 121 144 218 132 69 -8 85 -12 132 -37 35 -19 62 -24 137 -25 l93 -3
76 -71 c79 -74 171 -131 238 -149 22 -6 83 -13 135 -17 87 -5 101 -9 168 -47
97 -55 129 -83 176 -153 22 -33 50 -75 63 -94 44 -66 79 -98 148 -134 104 -54
123 -47 54 19 -107 104 -248 396 -314 650 -26 102 -14 145 37 130 43 -13 192
-119 259 -185 93 -91 121 -157 164 -387 3 -16 11 -53 18 -84 23 -96 22 -193
-3 -237 -34 -60 -63 -72 -187 -76 -118 -4 -133 -8 -179 -42 -40 -29 -67 -87
-94 -199 -24 -103 -62 -213 -91 -265 -47 -82 -134 -105 -271 -69 -40 10 -86
21 -102 24 -16 3 -33 8 -37 11 -5 3 -33 5 -63 5 -42 1 -67 -6 -105 -27 -71
-38 -196 -157 -270 -256 -33 -46 -66 -89 -71 -95 -22 -27 -120 -222 -145 -287
-35 -94 -54 -188 -51 -261 3 -83 34 -134 138 -226 242 -214 300 -309 292 -475
-4 -87 -2 -77 -69 -283 -93 -286 -117 -425 -95 -543 14 -74 67 -171 135 -245
61 -67 115 -108 290 -221 163 -106 233 -208 250 -363 16 -153 21 -174 50 -224
31 -54 53 -72 101 -83 58 -13 108 12 177 89 129 142 239 453 206 581 -20 78
-73 99 -169 67 -117 -38 -233 -26 -303 32 -104 86 -131 199 -88 371 46 182
175 379 290 445 25 15 59 38 74 52 30 27 85 128 107 195 16 51 69 141 109 186
17 19 31 38 31 41 0 4 -33 8 -72 11 -220 14 -201 152 35 263 42 20 77 38 77
40 0 2 -23 8 -51 14 -63 14 -168 62 -191 87 -9 11 -20 31 -23 46 -16 65 108
123 275 127 l35 1 -35 27 c-211 164 -311 372 -279 577 27 166 143 281 298 293
104 8 206 -25 350 -113 38 -23 43 -25 37 -8 -19 46 -55 196 -62 255 -18 159 2
265 82 435 73 154 63 212 -46 266 -30 15 -75 30 -100 32 -59 7 -89 31 -123 97
-46 91 -40 164 22 294 17 35 31 68 31 73 0 5 6 15 14 21 17 15 62 131 57 151
-7 34 -43 34 -91 -2 -52 -38 -140 -24 -295 47 -76 34 -98 57 -110 113 -4 19
-20 49 -36 67 -46 52 -52 86 -22 121 36 41 49 71 63 138 14 68 8 166 -12 217
l-14 34 -13 -49z m-588 -772 c10 -2 46 -6 80 -9 115 -11 114 -10 75 -73 -50
-82 -171 -85 -245 -5 -26 27 -38 65 -29 88 5 15 38 15 119 -1z"/>
<path d="M5174 5156 c-23 -7 -72 -29 -110 -49 -38 -19 -96 -44 -129 -54 -53
-16 -63 -23 -90 -67 -29 -48 -30 -53 -29 -165 2 -133 29 -245 90 -365 37 -72
120 -202 134 -211 12 -8 3 34 -30 139 -53 169 -76 280 -62 302 4 6 36 28 72
50 77 46 150 119 174 173 20 42 47 60 86 55 86 -12 92 -11 122 31 15 22 31 55
34 72 l6 33 -43 -6 c-42 -6 -45 -4 -77 35 -28 35 -38 41 -70 40 -20 0 -55 -6
-78 -13z m-84 -248 c0 -69 -70 -138 -142 -138 -36 0 -59 15 -77 49 -12 22 -24
99 -17 110 3 5 58 9 121 10 l115 2 0 -33z"/>
<path d="M5510 3268 c0 -4 5 -19 11 -35 6 -15 12 -61 15 -101 3 -67 1 -74 -24
-103 -23 -26 -34 -30 -78 -31 -29 0 -86 12 -135 28 -69 22 -103 27 -189 28
-93 1 -119 -3 -237 -37 -211 -61 -264 -52 -390 70 -91 87 -127 109 -198 124
-76 15 -130 6 -151 -26 -15 -22 -12 -61 5 -75 36 -30 60 -71 66 -110 10 -76
61 -98 108 -49 45 48 113 9 173 -98 63 -114 128 -164 256 -197 76 -20 128 -59
187 -140 73 -100 86 -171 51 -273 -10 -32 -22 -74 -25 -93 -17 -101 -47 -170
-92 -211 -15 -14 -80 -53 -143 -86 -63 -33 -149 -79 -191 -102 -91 -49 -144
-69 -207 -77 -26 -3 -58 -7 -72 -9 -23 -3 -67 -9 -165 -19 -22 -3 -71 -8 -110
-11 -38 -4 -73 -9 -76 -11 -3 -1 -41 -5 -85 -9 -43 -3 -94 -8 -111 -11 -18 -3
-35 -5 -38 -5 -18 2 -145 -54 -174 -76 -88 -66 -155 -172 -145 -228 7 -42 45
-94 72 -101 29 -8 46 7 72 61 63 130 243 240 440 269 88 13 213 26 295 31 79
5 125 10 200 19 11 2 45 6 75 10 98 13 133 25 277 98 94 47 152 71 174 70 41
-1 197 -105 205 -137 5 -19 -2 -56 -22 -126 -6 -23 18 -30 60 -18 43 12 60 39
58 94 -5 104 -66 219 -173 324 -87 87 -100 116 -93 213 6 76 77 291 112 338
15 19 63 73 107 119 44 46 101 113 126 150 52 75 91 106 147 114 43 7 113 53
138 92 34 52 21 158 -32 255 -26 46 -74 110 -74 98z"/>
</g>
</svg>
